<svg xmlns="http://www.w3.org/2000/svg" viewBox="0 0 58 55.83"><defs><style>.cls-1{fill:#b5c3c6}.cls-2{fill:#b6c8cc}.cls-3{fill:#e3e9ec}.cls-4{fill:#556080}.cls-5{fill:#a3b8be}.cls-6{fill:#cfe1e5}.cls-7{fill:#71c285}.cls-8{fill:#4c8056}.cls-9{fill:#d1d4d1}</style></defs><title>1</title><g id="Слой_2" data-name="Слой 2"><g id="Capa_1" data-name="Capa 1"><path class="cls-1" d="M29 2h8v52h-8z"/><path class="cls-2" d="M29 5H.94a.94.94 0 0 0-.94.94v44.12a.94.94 0 0 0 .94.94H29zm16.89 0L53 9v38l-7.11 4h11.17a.94.94 0 0 0 .94-.94V5.94a.94.94 0 0 0-.94-.94z"/><path class="cls-3" d="M37 .12v55.6a.12.12 0 0 0 .17.1L53 46.92v-38L37.17 0a.12.12 0 0 0-.17.12z"/><path class="cls-4" d="M29 9H5.34A1.35 1.35 0 0 0 4 10.35v35.31A1.34 1.34 0 0 0 5.35 47H29z"/><path class="cls-5" d="M52 15h3a1 1 0 0 0 0-2h-3a1 1 0 0 0 0 2zm3 1h-3a1 1 0 0 0 0 2h3a1 1 0 0 0 0-2zm0 22h-3a1 1 0 0 0 0 2h3a1 1 0 0 0 0-2zm0 3h-3a1 1 0 0 0 0 2h3a1 1 0 0 0 0-2z"/><path class="cls-4" d="M2 51h8v4H2zm46 0h8v4h-8z"/><circle class="cls-4" cx="33" cy="4.92" r="1"/><circle class="cls-4" cx="33" cy="10.92" r="1"/><circle class="cls-4" cx="33" cy="44.92" r="1"/><circle class="cls-4" cx="33" cy="38.92" r="1"/><circle class="cls-4" cx="33" cy="16.92" r="1"/><circle class="cls-4" cx="33" cy="50.92" r="1"/><path class="cls-1" d="M40 17.92v4a3 3 0 0 1 3 3v6a3 3 0 0 1-3 3v4a7 7 0 0 0 7-7v-6a7 7 0 0 0-7-7z"/><path class="cls-6" d="M41.06 19.5H40v1h1.06c1.62 0 3.94 1.89 3.94 3.5v7.82c0 1.62-2.32 3.66-3.94 3.66H40v1h1.19C43.3 36.4 46 34 46 31.83V24c0-2.16-2.77-4.5-4.94-4.5z"/><path class="cls-7" d="M8 35h18v12H8z"/><path class="cls-8" d="M8 43h6v2H8zm0-3h6v2H8zm0-3h6v2H8zm12 6h6v2h-6zm0-3h6v2h-6zm0-3h6v2h-6z"/><path class="cls-9" d="M14 35h6v12h-6z"/><path class="cls-7" d="M8 16h18v12H8z"/><path class="cls-8" d="M8 24h6v2H8zm0-3h6v2H8zm0-3h6v2H8zm12 6h6v2h-6zm0-3h6v2h-6zm0-3h6v2h-6z"/><path class="cls-9" d="M14 16h6v12h-6z"/><path class="cls-1" d="M4 28h25v2H4z"/></g></g></svg>