<svg xmlns="http://www.w3.org/2000/svg" viewBox="0 0 54 54"><defs><style>.cls-1{fill:#802f34}.cls-2{fill:#c03a2b}.cls-3{fill:#e64c3c}.cls-4{fill:#fff}.cls-5{fill:#ecf0f1}</style></defs><title>10</title><g id="Слой_2" data-name="Слой 2"><g id="Capa_1" data-name="Capa 1"><path class="cls-1" d="M0 0h18v54H0z"/><path class="cls-2" d="M18 0h18v54H18z"/><path class="cls-3" d="M36 0h18v54H36z"/><path class="cls-4" d="M4 4h10v20H4zm18 0h10v20H22zm18 0h10v20H40z"/><circle class="cls-1" cx="9" cy="44" r="5"/><path class="cls-5" d="M9 50a6 6 0 1 1 6-6 6 6 0 0 1-6 6zm0-10a4 4 0 1 0 4 4 4 4 0 0 0-4-4z"/><circle class="cls-1" cx="27" cy="44" r="5"/><path class="cls-5" d="M27 50a6 6 0 1 1 6-6 6 6 0 0 1-6 6zm0-10a4 4 0 1 0 4 4 4 4 0 0 0-4-4z"/><circle class="cls-1" cx="45" cy="44" r="5"/><path class="cls-5" d="M45 50a6 6 0 1 1 6-6 6 6 0 0 1-6 6zm0-10a4 4 0 1 0 4 4 4 4 0 0 0-4-4z"/></g></g></svg>