<svg xmlns="http://www.w3.org/2000/svg" viewBox="0 0 280.91 280.91"><defs><style>.cls-1{fill:#338539}.cls-2{fill:#fff}</style></defs><title>11-1</title><g id="Слой_2" data-name="Слой 2"><g id="Layer_1" data-name="Layer 1"><circle class="cls-1" cx="140.45" cy="140.45" r="140.45"/><path class="cls-2" d="M66.4 140.14c0-27.34 11.52-41.39 28.73-41.39s28.73 14 28.73 41.39-11.52 42-28.73 42-28.73-14.66-28.73-42zm39.87 0c0-22-4.81-27-11.14-27S84 118.11 84 140.14s4.94 27.59 11.14 27.59 11.13-5.73 11.13-27.59zm50.4 30.63l8.6-11.77c4.81 4.68 10.76 8.1 17.59 8.1 7.85 0 13-3.42 13-9.49 0-7.09-4.18-11.52-21.64-11.52v-13.17c14.43 0 19-4.3 19-10.76 0-5.57-3.55-8.86-9.87-8.86-5.7 0-10 2.66-15.06 7.09L158.94 109c7.34-6.33 15.44-10.25 25.31-10.25 16.58 0 27.72 8 27.72 22 0 8.35-4.81 14.18-13.42 17.85v.51c9.24 2.66 15.95 9.24 15.95 19.62 0 14.94-13.67 23.42-29.87 23.42-13.03.01-22.14-4.55-27.96-11.38z"/></g></g></svg>