<svg xmlns="http://www.w3.org/2000/svg" viewBox="0 0 54 42"><defs><style>.cls-1{fill:#f4f0ef}.cls-2{fill:#d1d4d1}.cls-3{fill:#8697cb}</style></defs><title>11</title><g id="Слой_2" data-name="Слой 2"><g id="Режим_изоляции" data-name="Режим изоляции"><path class="cls-1" d="M0 0h54v42H0z"/><path class="cls-2" d="M47 36H32a1 1 0 0 1 0-2h15a1 1 0 0 1 0 2zm-30-7H7a1 1 0 0 1 0-2h10a1 1 0 0 1 0 2zm25 0H27a1 1 0 0 1 0-2h15a1 1 0 0 1 0 2zm-20 0a1 1 0 0 1-1-1 1 1 0 0 1 .29-.71A1 1 0 1 1 22 29zm5 7H12a1 1 0 0 1 0-2h15a1 1 0 0 1 0 2zM7 36a1 1 0 0 1-.71-1.71 1 1 0 0 1 1.42 0A1 1 0 0 1 8 35a1 1 0 0 1-1 1zm40-7a1 1 0 0 1-1-1 1 1 0 0 1 .29-.71A1 1 0 1 1 47 29zm0-14H32a1 1 0 0 1 0-2h15a1 1 0 0 1 0 2zm0 7H37a1 1 0 0 1 0-2h10a1 1 0 0 1 0 2zm-18 0h-2a1 1 0 0 1 0-2h2a1 1 0 0 1 0 2zM42 8H27a1 1 0 0 1 0-2h15a1 1 0 0 1 0 2zm5 0a1 1 0 0 1-.71-1.71 1 1 0 0 1 1.42 0 1 1 0 0 1 0 1.42A1.05 1.05 0 0 1 47 8zm-19 7a1 1 0 0 1-1-1 1 1 0 0 1 .29-.71 1 1 0 0 1 1.42 0A1 1 0 0 1 29 14a1 1 0 0 1-1 1zm5 7a1 1 0 1 1 .71-.29A1.05 1.05 0 0 1 33 22z"/><path class="cls-3" d="M6 6h14v14H6z"/></g></g></svg>