<svg xmlns="http://www.w3.org/2000/svg" viewBox="0 0 280.91 280.91"><defs><style>.cls-1{fill:#338539}.cls-2{fill:#fff}</style></defs><title>12-1</title><g id="Слой_2" data-name="Слой 2"><g id="Layer_1" data-name="Layer 1"><circle class="cls-1" cx="140.45" cy="140.45" r="140.45"/><path class="cls-2" d="M64.82 140.14c0-27.34 11.52-41.39 28.73-41.39s28.73 14 28.73 41.39-11.52 42-28.73 42-28.73-14.66-28.73-42zm39.87 0c0-22-4.81-27-11.14-27s-11.14 4.94-11.14 27 4.94 27.59 11.14 27.59 11.14-5.73 11.14-27.59zm84.82 21.26H154.7v-12.78l29.37-48.35h22.79v47h9.24v14.13h-9.24v19.24h-17.35zm0-14.18v-13c0-5.19.51-12.91.76-18h-.51c-2 4.43-4.3 9-6.58 13.54l-10.63 17.47z"/></g></g></svg>