<svg xmlns="http://www.w3.org/2000/svg" viewBox="0 0 58 52"><defs><style>.cls-1{fill:#f0ede0}.cls-2{fill:#ddc043}.cls-3{fill:#f3d55b}.cls-4{fill:#d6d1bb}.cls-5{fill:#d4c3a5}.cls-6{fill:#f9eab0}</style></defs><title>2</title><g id="Слой_2" data-name="Слой 2"><g id="Capa_1" data-name="Capa 1"><path class="cls-1" d="M0 0v44h38v-7.31a9 9 0 0 0 12 0V44h8V0z"/><circle class="cls-2" cx="44" cy="30" r="9"/><path class="cls-3" d="M44 39a9 9 0 0 1-6-2.31V52l6-6 6 6V36.69A9 9 0 0 1 44 39z"/><path class="cls-4" d="M54 21a1 1 0 0 1-1-1v-1a1 1 0 0 1 2 0v1a1 1 0 0 1-1 1zm0-6.83a1 1 0 0 1-1-1v-2.34a1 1 0 0 1 2 0v2.33a1 1 0 0 1-1 1.01zM54 6a1 1 0 0 1-1-1 1 1 0 0 1 0-2h2v2a1 1 0 0 1-1 1zm-6.11-1h-2a1 1 0 0 1 0-2h2a1 1 0 0 1 0 2zm-7.15 0h-2a1 1 0 0 1 0-2h2a1 1 0 0 1 0 2zM33.6 5h-2a1 1 0 0 1 0-2h2a1 1 0 0 1 0 2zm-7.15 0h-2a1 1 0 0 1 0-2h2a1 1 0 0 1 0 2zM19.3 5h-2a1 1 0 0 1 0-2h2a1 1 0 0 1 0 2zm-7.15 0h-2a1 1 0 0 1 0-2h2a1 1 0 0 1 0 2zM4 6a1 1 0 0 1-1-1V3h2a1 1 0 0 1 0 2 1 1 0 0 1-1 1zm0 28.85a1 1 0 0 1-1-1v-2.06a1 1 0 0 1 2 0v2.06a1 1 0 0 1-1 1zm0-7.21a1 1 0 0 1-1-1v-2.07a1 1 0 0 1 2 0v2.06a1 1 0 0 1-1 1.01zm0-7.21a1 1 0 0 1-1-1v-2.07a1 1 0 0 1 2 0v2.06a1 1 0 0 1-1 1zm0-7.21a1 1 0 0 1-1-1v-2.07a1 1 0 0 1 2 0v2.06a1 1 0 0 1-1 1zM5 41H3v-2a1 1 0 0 1 2 0 1 1 0 0 1 0 2zm21 0h-2a1 1 0 0 1 0-2h2a1 1 0 0 1 0 2zm-7 0h-2a1 1 0 0 1 0-2h2a1 1 0 0 1 0 2zm-7 0h-2a1 1 0 0 1 0-2h2a1 1 0 0 1 0 2zm20 0h-1a1 1 0 0 1 0-2h1a1 1 0 0 1 0 2z"/><path class="cls-5" d="M47 12H24a1 1 0 0 0 0 2h23a1 1 0 0 0 0-2zm-12 6H24a1 1 0 0 0 0 2h11a1 1 0 0 0 0-2zm-3 6h-8a1 1 0 0 0 0 2h8a1 1 0 0 0 0-2zm-1 7H10a1 1 0 0 0 0 2h21a1 1 0 0 0 0-2z"/><circle class="cls-6" cx="44" cy="30" r="5"/></g></g></svg>