<svg xmlns="http://www.w3.org/2000/svg" viewBox="0 0 58 46"><defs><style>.cls-1{fill:#44312a}.cls-2{fill:#bdc3c7}.cls-3{fill:#63493e}.cls-4{fill:#7d5f4f}.cls-5{fill:#937669}.cls-6{fill:#fff}</style></defs><title>3</title><g id="Слой_2" data-name="Слой 2"><g id="Capa_1" data-name="Capa 1"><path class="cls-1" d="M58 31h-8a8 8 0 0 1-8-8 8 8 0 0 1 8-8h8z"/><circle class="cls-2" cx="50" cy="23" r="4"/><path class="cls-3" d="M52 43.52A2.48 2.48 0 0 1 49.52 46h6A2.48 2.48 0 0 0 58 43.52V31h-6zM55.52 0h-6A2.48 2.48 0 0 1 52 2.48V15h6V2.48A2.48 2.48 0 0 0 55.52 0z"/><path class="cls-4" d="M50 31a8 8 0 0 1 0-16h2V2.48A2.48 2.48 0 0 0 49.52 0h-47A2.48 2.48 0 0 0 0 2.48v41A2.48 2.48 0 0 0 2.48 46h47A2.48 2.48 0 0 0 52 43.52V31z"/><path class="cls-5" d="M48 35.83a1 1 0 0 1-.71-.29 1 1 0 0 1-.29-.71 1 1 0 0 1 .29-.7 1 1 0 0 1 1.42 0 1 1 0 0 1 .29.7 1 1 0 0 1-.29.71 1 1 0 0 1-.71.29zm-1 2.59a1 1 0 0 1 1-1 1 1 0 0 1 1 1 1 1 0 0 1-1 1 1 1 0 0 1-1-1zM48 43a1 1 0 0 1-1-1 1 1 0 1 1 1 1zm-5-1a1 1 0 0 1 1-1 1 1 0 0 1 1 1 1 1 0 0 1-1 1 1 1 0 0 1-1-1zm-4 0a1 1 0 0 1 1-1 1 1 0 0 1 1 1 1 1 0 0 1-1 1 1 1 0 0 1-1-1zm-4 0a1 1 0 0 1 1-1 1 1 0 0 1 1 1 1 1 0 0 1-1 1 1 1 0 0 1-1-1zm-4 0a1 1 0 0 1 1-1 1 1 0 0 1 1 1 1 1 0 0 1-1 1 1 1 0 0 1-1-1zm-4 0a1 1 0 0 1 1-1 1 1 0 0 1 1 1 1 1 0 0 1-1 1 1 1 0 0 1-1-1zm-4 0a1 1 0 0 1 1-1 1 1 0 0 1 1 1 1 1 0 0 1-1 1 1 1 0 0 1-1-1zm-4 0a1 1 0 0 1 1-1 1 1 0 0 1 1 1 1 1 0 0 1-1 1 1 1 0 0 1-1-1zm-4 0a1 1 0 0 1 1-1 1 1 0 0 1 1 1 1 1 0 0 1-1 1 1 1 0 0 1-1-1zm-4 0a1 1 0 0 1 1-1 1 1 0 0 1 1 1 1 1 0 0 1-1 1 1 1 0 0 1-1-1zm-4 0a1 1 0 0 1 1-1 1 1 0 0 1 1 1 1 1 0 0 1-1 1 1 1 0 0 1-1-1zm-3 1a1 1 0 1 1 .71-1.71A1 1 0 0 1 4 43zm-1-4.8a1 1 0 0 1 1-1 1 1 0 0 1 1 1 1 1 0 0 1-1 1 1 1 0 0 1-1-1zm0-3.8a1 1 0 0 1 1-1 1 1 0 0 1 1 1 1 1 0 0 1-1 1 1 1 0 0 1-1-1zm0-3.8a1 1 0 0 1 1-1 1 1 0 0 1 1 1 1 1 0 0 1-1 1 1 1 0 0 1-1-1zm0-3.8a1 1 0 0 1 1-1 1 1 0 0 1 1 1 1 1 0 0 1-1 1 1 1 0 0 1-1-1zM3 23a1 1 0 0 1 1-1 1 1 0 0 1 1 1 1 1 0 0 1-1 1 1 1 0 0 1-1-1zm0-3.8a1 1 0 0 1 1-1 1 1 0 0 1 1 1 1 1 0 0 1-1 1 1 1 0 0 1-1-1zm0-3.8a1 1 0 0 1 1-1 1 1 0 0 1 1 1 1 1 0 0 1-1 1 1 1 0 0 1-1-1zm0-3.8a1 1 0 0 1 1-1 1 1 0 0 1 1 1 1 1 0 0 1-1 1 1 1 0 0 1-1-1zm0-3.8a1 1 0 0 1 1-1 1 1 0 0 1 1 1 1 1 0 0 1-1 1 1 1 0 0 1-1-1zM4 5a1 1 0 0 1-1-1 1 1 0 0 1 .29-.71 1 1 0 0 1 1.42 0 1 1 0 0 1 0 1.42A1.05 1.05 0 0 1 4 5zm39-1a1 1 0 0 1 1-1 1 1 0 0 1 1 1 1 1 0 0 1-1 1 1 1 0 0 1-1-1zm-4 0a1 1 0 0 1 1-1 1 1 0 0 1 1 1 1 1 0 0 1-1 1 1 1 0 0 1-1-1zm-4 0a1 1 0 0 1 1-1 1 1 0 0 1 1 1 1 1 0 0 1-1 1 1 1 0 0 1-1-1zm-4 0a1 1 0 0 1 1-1 1 1 0 0 1 1 1 1 1 0 0 1-1 1 1 1 0 0 1-1-1zm-4 0a1 1 0 0 1 1-1 1 1 0 0 1 1 1 1 1 0 0 1-1 1 1 1 0 0 1-1-1zm-4 0a1 1 0 0 1 1-1 1 1 0 0 1 1 1 1 1 0 0 1-1 1 1 1 0 0 1-1-1zm-4 0a1 1 0 0 1 1-1 1 1 0 0 1 1 1 1 1 0 0 1-1 1 1 1 0 0 1-1-1zm-4 0a1 1 0 0 1 1-1 1 1 0 0 1 1 1 1 1 0 0 1-1 1 1 1 0 0 1-1-1zm-4 0a1 1 0 0 1 1-1 1 1 0 0 1 1 1 1 1 0 0 1-1 1 1 1 0 0 1-1-1zM7 4a1 1 0 0 1 1-1 1 1 0 0 1 1 1 1 1 0 0 1-1 1 1 1 0 0 1-1-1zm41 1a1 1 0 0 1-1-1 1 1 0 0 1 .29-.71 1 1 0 0 1 1.42 0A1 1 0 0 1 49 4a1 1 0 0 1-1 1zm-1 2.58a1 1 0 0 1 1-1 1 1 0 0 1 1 1 1 1 0 0 1-1 1 1 1 0 0 1-1-1zm1 4.59a1 1 0 0 1-1-1 1 1 0 0 1 .3-.71 1 1 0 0 1 1.7.71 1 1 0 0 1-1 1z"/><circle class="cls-6" cx="49.26" cy="21.83" r="1.76"/></g></g></svg>