<svg xmlns="http://www.w3.org/2000/svg" viewBox="0 0 58 42"><defs><style>.cls-1{fill:#d5b89a}.cls-2{fill:#e74c3d}.cls-3{fill:#f0c41b}.cls-4{fill:#e4d6b6}.cls-5{fill:#665248}</style></defs><title>6</title><g id="Слой_2" data-name="Слой 2"><g id="Capa_1" data-name="Capa 1"><g id="_Группа_" data-name="&lt;Группа&gt;"><path id="_Контур_" data-name="&lt;Контур&gt;" class="cls-1" d="M54.78 42H3.22A3.22 3.22 0 0 1 0 38.78V3.22A3.22 3.22 0 0 1 3.22 0h51.56A3.22 3.22 0 0 1 58 3.22v35.56A3.22 3.22 0 0 1 54.78 42"/><path id="_Контур_2" data-name="&lt;Контур&gt;" class="cls-2" d="M46 12a6 6 0 1 1-6-6 6 6 0 0 1 6 6"/><path id="_Контур_3" data-name="&lt;Контур&gt;" class="cls-3" d="M53 12a6 6 0 1 1-6-6 6 6 0 0 1 6 6"/><path id="_Контур_4" data-name="&lt;Контур&gt;" class="cls-4" d="M14 7H5a1 1 0 0 0 0 2h9a1 1 0 0 0 0-2"/><path id="_Контур_5" data-name="&lt;Контур&gt;" class="cls-4" d="M28 8a1 1 0 0 0-1-1h-9a1 1 0 0 0 0 2h9a1 1 0 0 0 1-1"/><path id="_Контур_6" data-name="&lt;Контур&gt;" class="cls-4" d="M6 12H5a1 1 0 0 0 0 2h1a1 1 0 0 0 0-2"/><path id="_Контур_7" data-name="&lt;Контур&gt;" class="cls-4" d="M12 12h-2a1 1 0 0 0 0 2h2a1 1 0 0 0 0-2"/><path id="_Контур_8" data-name="&lt;Контур&gt;" class="cls-4" d="M17 12h-1a1 1 0 0 0 0 2h1a1 1 0 0 0 0-2"/><path id="_Контур_9" data-name="&lt;Контур&gt;" class="cls-4" d="M23 12h-2a1 1 0 0 0 0 2h2a1 1 0 0 0 0-2"/><path id="_Контур_10" data-name="&lt;Контур&gt;" class="cls-4" d="M26.3 12.29a1 1 0 0 0-.3.71 1 1 0 0 0 .29.71A1 1 0 0 0 28 13a1 1 0 0 0-.29-.7 1 1 0 0 0-1.41 0"/><path id="_Контур_11" data-name="&lt;Контур&gt;" class="cls-5" d="M5 29h9v6H5z"/><path id="_Контур_12" data-name="&lt;Контур&gt;" class="cls-5" d="M18 29h9v6h-9z"/><path id="_Контур_13" data-name="&lt;Контур&gt;" class="cls-5" d="M31 29h9v6h-9z"/><path id="_Контур_14" data-name="&lt;Контур&gt;" class="cls-5" d="M44 29h9v6h-9z"/></g></g></g></svg>