<svg xmlns="http://www.w3.org/2000/svg" viewBox="0 0 52 58"><defs><style>.cls-1{fill:#3c494e}.cls-2{fill:#556080}.cls-3{fill:#a4e869}.cls-4{fill:#ed7161}.cls-5{fill:#b1d194}.cls-6{fill:#8697cb}.cls-7{fill:#fdfdfd}.cls-8{fill:#f65246}.cls-9{fill:#f5d758}.cls-10{fill:#1fd483}.cls-11{fill:#70845a}</style></defs><title>7</title><g id="Слой_2" data-name="Слой 2"><g id="Capa_1" data-name="Capa 1"><path class="cls-1" d="M33.27 58H4.73A4.73 4.73 0 0 1 0 53.27V4.73A4.73 4.73 0 0 1 4.73 0h28.54A4.73 4.73 0 0 1 38 4.73v48.54A4.73 4.73 0 0 1 33.27 58z"/><path class="cls-2" d="M49.8 40H38V8h11.8a2.2 2.2 0 0 1 2.2 2.2v27.6a2.2 2.2 0 0 1-2.2 2.2z"/><path class="cls-1" d="M42 8h4v32h-4z"/><circle class="cls-3" cx="49" cy="13" r="1"/><circle class="cls-4" cx="49" cy="18" r="1"/><path class="cls-5" d="M5 9h28v11H5z"/><path class="cls-6" d="M10 6H4a1 1 0 0 1 0-2h6a1 1 0 0 1 0 2z"/><path class="cls-7" d="M6 24h6v5H6zm10 0h6v5h-6z"/><path class="cls-8" d="M26 24h6v5h-6z"/><path class="cls-7" d="M6 32h6v5H6zm10 0h6v5h-6z"/><path class="cls-9" d="M26 32h6v5h-6z"/><path class="cls-7" d="M6 40h6v5H6zm10 0h6v5h-6zM6 48h6v5H6zm10 0h6v5h-6z"/><path class="cls-10" d="M26 40h6v14h-6z"/><path class="cls-11" d="M16.38 11.08a1 1 0 0 0-1.09.22l-1 1A1 1 0 0 0 15 14v3a1 1 0 0 0 2 0v-5a1 1 0 0 0-.08-.38 1 1 0 0 0-.54-.54zm9 0a1 1 0 0 0-1.09.22l-1 1A1 1 0 0 0 24 14v3a1 1 0 0 0 2 0v-5a1 1 0 0 0-.08-.38 1 1 0 0 0-.54-.54zm-5.09 4.21l-1 1a1 1 0 1 0 1.41 1.41l1-1a1 1 0 0 0-1.41-1.41zm9.63-3.67a1 1 0 0 0-1.63-.32l-1 1A1 1 0 0 0 28 14v3a1 1 0 0 0 2 0v-5a1 1 0 0 0-.08-.38z"/></g></g></svg>