<svg xmlns="http://www.w3.org/2000/svg" viewBox="0 0 58 58"><defs><style>.cls-1{fill:#ce9965}.cls-2{fill:#986c48}.cls-3{fill:#ffd16c}.cls-4{fill:#604530}.cls-5{fill:#cbb292}</style></defs><title>8</title><g id="Слой_2" data-name="Слой 2"><g id="Capa_1" data-name="Capa 1"><path class="cls-1" d="M50.87 11H7.13A7.13 7.13 0 0 0 0 18.13v9.51l6 2.06a61.62 61.62 0 0 0 16 3.21V25h14v7.9a68.38 68.38 0 0 0 16-3.2l6-2.06v-9.51A7.13 7.13 0 0 0 50.87 11z"/><path class="cls-2" d="M36 32.9V25H22v7.92a61.62 61.62 0 0 1-16-3.21l-6-2.07L1 28v27.77A2.23 2.23 0 0 0 3.23 58h51.54A2.23 2.23 0 0 0 57 55.77V28l1-.34-6 2.06a68.33 68.33 0 0 1-16 3.18z"/><path class="cls-3" d="M16 8h8v3h-8zm18 0h8v3h-8z"/><path class="cls-4" d="M36 5.44V8h4V5.89A5.89 5.89 0 0 0 34.11 0H23.89A5.89 5.89 0 0 0 18 5.89V8h4V5.44A1.56 1.56 0 0 1 24.16 4a12.68 12.68 0 0 0 9.68 0A1.56 1.56 0 0 1 36 5.44z"/><path class="cls-3" d="M42 49h10v4H42z"/><path class="cls-4" d="M30 43h-2l-3-3v-3h8v3l-3 3zm-5-32h8v14h-8z"/><path class="cls-3" d="M22 25h14v12H22z"/><path class="cls-4" d="M25 25h8v9h-8z"/><path class="cls-5" d="M29 35a1 1 0 0 1-1-1v-4a1 1 0 0 1 2 0v4a1 1 0 0 1-1 1z"/></g></g></svg>