<svg xmlns="http://www.w3.org/2000/svg" viewBox="0 0 280.91 280.91"><defs><style>.cls-1{fill:#338539}.cls-2{fill:#fff}</style></defs><title>9-1</title><g id="Слой_2" data-name="Слой 2"><g id="Layer_1" data-name="Layer 1"><circle class="cls-1" cx="140.45" cy="140.45" r="140.45"/><path class="cls-2" d="M66.71 140.14c0-27.34 11.52-41.39 28.73-41.39s28.73 14 28.73 41.39-11.52 42-28.73 42-28.73-14.66-28.73-42zm39.87 0c0-22-4.81-27-11.14-27s-11.14 4.94-11.14 27 4.94 27.59 11.14 27.59 11.14-5.73 11.14-27.59zm56.48 25.44h17.47v-46.45h-15.07v-11.52a56 56 0 0 0 20-7.34h13.67v65.31h15.07v15.06h-51.14z"/></g></g></svg>