<svg xmlns="http://www.w3.org/2000/svg" viewBox="0 0 503.32 503.32"><defs><style>.cls-1{fill:#e6eef3}.cls-2{fill:#cad3db}.cls-3{fill:#9aabb4}.cls-4{fill:#788992}</style></defs><title>9</title><g id="Слой_2" data-name="Слой 2"><g id="Layer_1" data-name="Layer 1"><path class="cls-1" d="M34.71 468.61h433.9V0H34.71v468.61z"/><path class="cls-2" d="M0 503.32h503.32v-34.71H0v34.71z"/><path class="cls-3" d="M86.78 95.46h69.42V43.39H86.78v52.07zm0 95.45h69.42v-52.06H86.78v52.06zm130.17 0h69.42v-52.06h-69.42v52.06zm130.17 0h69.42v-52.06h-69.42v52.06zm-130.17 95.46h69.42v-52.06h-69.42v52.06zm130.17 0h69.42v-52.06h-69.42v52.06zm-260.34 0h69.42v-52.06H86.78v52.06zM216.95 95.46h69.42V43.39h-69.42v52.07zm130.17 0h69.42V43.39h-69.42v52.07zm-95.46 373.15h69.42V364.48h-69.42v104.13z"/><path class="cls-4" d="M182.24 468.61h69.42V364.48h-69.42v104.13z"/><path class="cls-3" d="M303.73 338.44H199.6a8.68 8.68 0 0 1 0-17.36h104.13a8.68 8.68 0 1 1 0 17.36"/></g></g></svg>