<svg xmlns="http://www.w3.org/2000/svg" width="9" height="9" viewBox="0 0 9 9"><defs><style>.cls-1{fill-rule:evenodd}</style></defs><path id="Фигура_4" data-name="Фигура 4" class="cls-1" d="M951.419 15.008a.31.31 0 0 0-.187.013 2.511 2.511 0 0 0-1.195 1.884c-.311 2.147 1.382 4.007 2.938 5.23 1.382 1.086 4.033 2.871 5.6 1.149a1.3 1.3 0 0 0 .425-.837 1.873 1.873 0 0 0-.9-1.186 3.136 3.136 0 0 0-1.257-.786 1.328 1.328 0 0 0-.759.574l-.374.374a4.019 4.019 0 0 1-.946-.524 6.36 6.36 0 0 1-.908-.712 5.906 5.906 0 0 1-.735-.848 4.389 4.389 0 0 1-.523-.911s.436-.475.561-.662a.95.95 0 0 0 .161-1.186 2.79 2.79 0 0 0-.4-.462 7.537 7.537 0 0 0-.82-.718 1.737 1.737 0 0 0-.681-.392z" transform="translate(-950 -15)"/></svg>