<svg xmlns="http://www.w3.org/2000/svg" viewBox="0 0 134 40"><defs><style>.cls-1{fill:#333}.cls-2{fill:#338539}.cls-3{fill:#556180}</style></defs><title>logo-text</title><g id="Слой_2" data-name="Слой 2"><g id="Logo"><path id="ЗАЛОГ_ИНВЕСТ" data-name="ЗАЛОГ ИНВЕСТ" class="cls-1" d="M78.07 16.64c1.87 0 3.29-.9 3.29-2.61a2 2 0 0 0-1.47-1.94A1.87 1.87 0 0 0 81 10.24C81 8.86 79.92 8 78 8a4.08 4.08 0 0 0-2.74 1l1 1.25a2.78 2.78 0 0 1 1.72-.65 1 1 0 0 1 1.18.92c0 .6-.37.95-1.38.95h-.86v1.39H78c1 0 1.52.31 1.52 1A1.24 1.24 0 0 1 78.18 15H78a2.94 2.94 0 0 1-2-.79l-1 1.29a4.41 4.41 0 0 0 3.07 1.14zm9.45-4.37c.23-.83.45-1.8.66-2.69h.05c.22.87.45 1.85.68 2.69l.19.77h-1.78zm-3 4.22h1.93l.51-2h2.56l.51 2h2l-2.65-8.34H87.1zm11 .15c1.34 0 2-.75 2.57-3.56.21-1.1.41-2.17.62-3.35h1.53v6.75h1.9V8.15h-4.97c-.3 1.61-.57 3.18-.91 4.73-.39 1.79-.68 2-1.11 2a1.53 1.53 0 0 1-.36-.05l-.33 1.69a2.58 2.58 0 0 0 1 .13zm14.41 0c2.26 0 3.81-1.64 3.81-4.36S112.12 8 109.85 8 106 9.56 106 12.29s1.54 4.36 3.81 4.36zm0-1.62C108.71 15 108 14 108 12.28s.72-2.66 1.87-2.66 1.87 1 1.87 2.66S111 15 109.85 15zm8.28 1.47H120V9.74h3.4V8.15h-5.29v8.34zM75.52 31.84h2l2.2-4.16.82-1.82h.05c-.08.92-.23 2-.23 3v3h1.87V23.5h-2L78 27.66l-.82 1.83h-.05c.09-.88.24-2.06.24-3V23.5h-1.85v8.34zm11.69 0h1.89v-3.47H92v3.48h1.9V23.5H92v3.21h-2.9V23.5h-1.89v8.34zm10.86 0h3.11c1.81 0 3.26-.76 3.26-2.46a1.89 1.89 0 0 0-1.5-2v-.05a1.93 1.93 0 0 0 1.09-1.8c0-1.6-1.35-2.07-3.09-2.07h-2.87v8.34zm1.89-5V25h.9c.89 0 1.31.24 1.31.9s-.4 1-1.33 1zm0 3.54v-2.14H101c1 0 1.56.29 1.56 1s-.53 1.13-1.56 1.13zm8.14 1.46h5.38v-1.58H110v-1.92h2.86v-1.57H110v-1.68h3.36V23.5h-5.26v8.34zm13.53.15a3.46 3.46 0 0 0 2.71-1.23l-1-1.18a2.24 2.24 0 0 1-1.63.78c-1.24 0-2-1-2-2.71s.91-2.69 2.06-2.69a2.15 2.15 0 0 1 1.48.67l1-1.2a3.56 3.56 0 0 0-2.52-1.09c-2.12 0-4 1.61-4 4.37s1.77 4.29 3.9 4.29zm8.16-.15h1.9v-6.75H134V23.5h-6.51v1.59h2.3v6.75z"/><path id="Прямоугольник_13" data-name="Прямоугольник 13" class="cls-1" d="M63.44 0h.78v40h-.78z"/><g id="Слой_2-2" data-name="Слой 2"><g id="Слой_1-2" data-name="Слой 1-2"><path class="cls-2" d="M0 19.96h6.33L22 6.96V1.64m24.33 18.32H40l-15.67-13V1.64"/><path class="cls-3" d="M22.75 8.55l-11 9.5h23"/><path class="cls-1" d="M24.88 22.47L18.1 34.59H25v3.78H11.75v-.64l6.75-12.09h-6.14v-3.8h12.52zm9.87 12.17v3.71h-8.38v-3.71h2.1v-9.13h-1.94v-3.67h8.05v3.68h-1.93v9.12z"/></g></g></g></g></svg>