<svg xmlns="http://www.w3.org/2000/svg" viewBox="0 0 58 55.83"><defs><style>.cls-1{fill:#b5c3c6;}.cls-2{fill:#b6c8cc;}.cls-3{fill:#e3e9ec;}.cls-4{fill:#556080;}.cls-5{fill:#a3b8be;}.cls-6{fill:#cfe1e5;}.cls-7{fill:#71c285;}.cls-8{fill:#4c8056;}.cls-9{fill:#d1d4d1;}</style></defs><title>1</title><g id="Слой_2" data-name="Слой 2"><g id="Capa_1" data-name="Capa 1"><rect class="cls-1" x="29" y="2" width="8" height="52"/><path class="cls-2" d="M29,5H.94A.94.94,0,0,0,0,5.94V50.06A.94.94,0,0,0,.94,51H29Z"/><path class="cls-2" d="M45.89,5,53,9V47l-7.11,4H57.06a.94.94,0,0,0,.94-.94V5.94A.94.94,0,0,0,57.06,5Z"/><path class="cls-3" d="M37,.12v55.6a.12.12,0,0,0,.17.1L53,46.92v-38L37.17,0A.12.12,0,0,0,37,.12Z"/><path class="cls-4" d="M29,9H5.34A1.35,1.35,0,0,0,4,10.35V45.66A1.34,1.34,0,0,0,5.35,47H29Z"/><path class="cls-5" d="M52,15h3a1,1,0,0,0,0-2H52a1,1,0,0,0,0,2Z"/><path class="cls-5" d="M55,16H52a1,1,0,0,0,0,2h3a1,1,0,0,0,0-2Z"/><path class="cls-5" d="M55,38H52a1,1,0,0,0,0,2h3a1,1,0,0,0,0-2Z"/><path class="cls-5" d="M55,41H52a1,1,0,0,0,0,2h3a1,1,0,0,0,0-2Z"/><rect class="cls-4" x="2" y="51" width="8" height="4"/><rect class="cls-4" x="48" y="51" width="8" height="4"/><circle class="cls-4" cx="33" cy="4.92" r="1"/><circle class="cls-4" cx="33" cy="10.92" r="1"/><circle class="cls-4" cx="33" cy="44.92" r="1"/><circle class="cls-4" cx="33" cy="38.92" r="1"/><circle class="cls-4" cx="33" cy="16.92" r="1"/><circle class="cls-4" cx="33" cy="50.92" r="1"/><path class="cls-1" d="M40,17.92v4a3,3,0,0,1,3,3v6a3,3,0,0,1-3,3v4a7,7,0,0,0,7-7v-6A7,7,0,0,0,40,17.92Z"/><path class="cls-6" d="M41.06,19.5h-.84v0H40v1h1.06C42.68,20.5,45,22.39,45,24v7.82c0,1.62-2.32,3.66-3.94,3.66H40v1h1.19C43.3,36.4,46,34,46,31.83V24C46,21.84,43.23,19.5,41.06,19.5Z"/><rect class="cls-7" x="8" y="35" width="18" height="12"/><rect class="cls-8" x="8" y="43" width="6" height="2"/><rect class="cls-8" x="8" y="40" width="6" height="2"/><rect class="cls-8" x="8" y="37" width="6" height="2"/><rect class="cls-8" x="20" y="43" width="6" height="2"/><rect class="cls-8" x="20" y="40" width="6" height="2"/><rect class="cls-8" x="20" y="37" width="6" height="2"/><rect class="cls-9" x="14" y="35" width="6" height="12"/><rect class="cls-7" x="8" y="16" width="18" height="12"/><rect class="cls-8" x="8" y="24" width="6" height="2"/><rect class="cls-8" x="8" y="21" width="6" height="2"/><rect class="cls-8" x="8" y="18" width="6" height="2"/><rect class="cls-8" x="20" y="24" width="6" height="2"/><rect class="cls-8" x="20" y="21" width="6" height="2"/><rect class="cls-8" x="20" y="18" width="6" height="2"/><rect class="cls-9" x="14" y="16" width="6" height="12"/><rect class="cls-1" x="4" y="28" width="25" height="2"/></g></g></svg>