<svg xmlns="http://www.w3.org/2000/svg" viewBox="0 0 280.91 280.91"><defs><style>.cls-1{fill:#338539;}.cls-2{fill:#fff;}</style></defs><title>10-1</title><g id="Слой_2" data-name="Слой 2"><g id="Layer_1" data-name="Layer 1"><circle class="cls-1" cx="140.45" cy="140.45" r="140.45"/><path class="cls-2" d="M66.08,140.14c0-27.34,11.52-41.39,28.73-41.39s28.73,14,28.73,41.39-11.52,42-28.73,42S66.08,167.48,66.08,140.14Zm39.87,0c0-22-4.81-27-11.14-27s-11.14,4.94-11.14,27,4.94,27.59,11.14,27.59S106,162,106,140.14Z"/><path class="cls-2" d="M158.25,170c20.5-19.37,34.94-33.16,34.94-44.56,0-7.85-4.43-12.15-11.39-12.15-5.82,0-10.25,3.92-14.3,8.23l-10.13-10c8-8.48,15.44-12.78,27-12.78,15.82,0,26.58,10.13,26.58,25.57,0,13.54-12.66,28-25.7,41.64a124,124,0,0,1,13.42-1h16.2v15.69H158.25Z"/></g></g></svg>