<svg xmlns="http://www.w3.org/2000/svg" viewBox="0 0 54 54"><defs><style>.cls-1{fill:#802f34;}.cls-2{fill:#c03a2b;}.cls-3{fill:#e64c3c;}.cls-4{fill:#fff;}.cls-5{fill:#ecf0f1;}</style></defs><title>10</title><g id="Слой_2" data-name="Слой 2"><g id="Capa_1" data-name="Capa 1"><rect class="cls-1" width="18" height="54"/><rect class="cls-2" x="18" width="18" height="54"/><rect class="cls-3" x="36" width="18" height="54"/><rect class="cls-4" x="4" y="4" width="10" height="20"/><rect class="cls-4" x="22" y="4" width="10" height="20"/><rect class="cls-4" x="40" y="4" width="10" height="20"/><circle class="cls-1" cx="9" cy="44" r="5"/><path class="cls-5" d="M9,50a6,6,0,1,1,6-6A6,6,0,0,1,9,50ZM9,40a4,4,0,1,0,4,4A4,4,0,0,0,9,40Z"/><circle class="cls-1" cx="27" cy="44" r="5"/><path class="cls-5" d="M27,50a6,6,0,1,1,6-6A6,6,0,0,1,27,50Zm0-10a4,4,0,1,0,4,4A4,4,0,0,0,27,40Z"/><circle class="cls-1" cx="45" cy="44" r="5"/><path class="cls-5" d="M45,50a6,6,0,1,1,6-6A6,6,0,0,1,45,50Zm0-10a4,4,0,1,0,4,4A4,4,0,0,0,45,40Z"/></g></g></svg>