<svg xmlns="http://www.w3.org/2000/svg" viewBox="0 0 54 42"><defs><style>.cls-1{fill:#f4f0ef;}.cls-2{fill:#d1d4d1;}.cls-3{fill:#8697cb;}</style></defs><title>11</title><g id="Слой_2" data-name="Слой 2"><g id="Режим_изоляции" data-name="Режим изоляции"><rect class="cls-1" width="54" height="42"/><path class="cls-2" d="M47,36H32a1,1,0,0,1,0-2H47a1,1,0,0,1,0,2Z"/><path class="cls-2" d="M17,29H7a1,1,0,0,1,0-2H17a1,1,0,0,1,0,2Z"/><path class="cls-2" d="M42,29H27a1,1,0,0,1,0-2H42a1,1,0,0,1,0,2Z"/><path class="cls-2" d="M22,29a1,1,0,0,1-1-1,1,1,0,0,1,.29-.71A1,1,0,1,1,22,29Z"/><path class="cls-2" d="M27,36H12a1,1,0,0,1,0-2H27a1,1,0,0,1,0,2Z"/><path class="cls-2" d="M7,36a1,1,0,0,1-.71-1.71,1,1,0,0,1,1.42,0A1,1,0,0,1,8,35a1,1,0,0,1-1,1Z"/><path class="cls-2" d="M47,29a1,1,0,0,1-1-1,1,1,0,0,1,.29-.71A1,1,0,1,1,47,29Z"/><path class="cls-2" d="M47,15H32a1,1,0,0,1,0-2H47a1,1,0,0,1,0,2Z"/><path class="cls-2" d="M47,22H37a1,1,0,0,1,0-2H47a1,1,0,0,1,0,2Z"/><path class="cls-2" d="M29,22H27a1,1,0,0,1,0-2h2a1,1,0,0,1,0,2Z"/><path class="cls-2" d="M42,8H27a1,1,0,0,1,0-2H42a1,1,0,0,1,0,2Z"/><path class="cls-2" d="M47,8a1,1,0,0,1-.71-1.71,1,1,0,0,1,1.42,0,1,1,0,0,1,0,1.42A1.05,1.05,0,0,1,47,8Z"/><path class="cls-2" d="M28,15a1,1,0,0,1-1-1,1,1,0,0,1,.29-.71,1,1,0,0,1,1.42,0A1,1,0,0,1,29,14a1,1,0,0,1-1,1Z"/><path class="cls-2" d="M33,22a1,1,0,1,1,.71-.29A1.05,1.05,0,0,1,33,22Z"/><rect class="cls-3" x="6" y="6" width="14" height="14"/></g></g></svg>