<svg xmlns="http://www.w3.org/2000/svg" viewBox="0 0 58 52"><defs><style>.cls-1{fill:#f0ede0;}.cls-2{fill:#ddc043;}.cls-3{fill:#f3d55b;}.cls-4{fill:#d6d1bb;}.cls-5{fill:#d4c3a5;}.cls-6{fill:#f9eab0;}</style></defs><title>2</title><g id="Слой_2" data-name="Слой 2"><g id="Capa_1" data-name="Capa 1"><path class="cls-1" d="M0,0V44H38V36.69a9,9,0,0,0,12,0V44h8V0Z"/><circle class="cls-2" cx="44" cy="30" r="9"/><path class="cls-3" d="M44,39a9,9,0,0,1-6-2.31V52l6-6,6,6V36.69A9,9,0,0,1,44,39Z"/><path class="cls-4" d="M54,21a1,1,0,0,1-1-1V19a1,1,0,0,1,2,0v1A1,1,0,0,1,54,21Z"/><path class="cls-4" d="M54,14.17a1,1,0,0,1-1-1V10.83a1,1,0,0,1,2,0v2.33A1,1,0,0,1,54,14.17Z"/><path class="cls-4" d="M54,6a1,1,0,0,1-1-1,1,1,0,0,1,0-2h2V5A1,1,0,0,1,54,6Z"/><path class="cls-4" d="M47.89,5h-2a1,1,0,0,1,0-2h2a1,1,0,0,1,0,2ZM40.74,5h-2a1,1,0,0,1,0-2h2a1,1,0,0,1,0,2ZM33.6,5h-2a1,1,0,0,1,0-2h2a1,1,0,0,1,0,2ZM26.45,5h-2a1,1,0,0,1,0-2h2a1,1,0,0,1,0,2ZM19.3,5h-2a1,1,0,0,1,0-2h2a1,1,0,0,1,0,2ZM12.15,5h-2a1,1,0,0,1,0-2h2a1,1,0,0,1,0,2Z"/><path class="cls-4" d="M4,6A1,1,0,0,1,3,5V3H5A1,1,0,0,1,5,5,1,1,0,0,1,4,6Z"/><path class="cls-4" d="M4,34.85a1,1,0,0,1-1-1V31.79a1,1,0,0,1,2,0v2.06A1,1,0,0,1,4,34.85Zm0-7.21a1,1,0,0,1-1-1V24.57a1,1,0,0,1,2,0v2.06A1,1,0,0,1,4,27.64Zm0-7.21a1,1,0,0,1-1-1V17.36a1,1,0,0,1,2,0v2.06A1,1,0,0,1,4,20.42Zm0-7.21a1,1,0,0,1-1-1V10.15a1,1,0,0,1,2,0v2.06A1,1,0,0,1,4,13.21Z"/><path class="cls-4" d="M5,41H3V39a1,1,0,0,1,2,0,1,1,0,0,1,0,2Z"/><path class="cls-4" d="M26,41H24a1,1,0,0,1,0-2h2a1,1,0,0,1,0,2Zm-7,0H17a1,1,0,0,1,0-2h2a1,1,0,0,1,0,2Zm-7,0H10a1,1,0,0,1,0-2h2a1,1,0,0,1,0,2Z"/><path class="cls-4" d="M32,41H31a1,1,0,0,1,0-2h1a1,1,0,0,1,0,2Z"/><path class="cls-5" d="M47,12H24a1,1,0,0,0,0,2H47a1,1,0,0,0,0-2Z"/><path class="cls-5" d="M35,18H24a1,1,0,0,0,0,2H35a1,1,0,0,0,0-2Z"/><path class="cls-5" d="M32,24H24a1,1,0,0,0,0,2h8a1,1,0,0,0,0-2Z"/><path class="cls-5" d="M31,31H10a1,1,0,0,0,0,2H31a1,1,0,0,0,0-2Z"/><circle class="cls-6" cx="44" cy="30" r="5"/></g></g></svg>