<svg xmlns="http://www.w3.org/2000/svg" viewBox="0 0 58 46"><defs><style>.cls-1{fill:#44312a;}.cls-2{fill:#bdc3c7;}.cls-3{fill:#63493e;}.cls-4{fill:#7d5f4f;}.cls-5{fill:#937669;}.cls-6{fill:#fff;}</style></defs><title>3</title><g id="Слой_2" data-name="Слой 2"><g id="Capa_1" data-name="Capa 1"><path class="cls-1" d="M58,31H50a8,8,0,0,1-8-8h0a8,8,0,0,1,8-8h8Z"/><circle class="cls-2" cx="50" cy="23" r="4"/><path class="cls-3" d="M52,43.52A2.48,2.48,0,0,1,49.52,46h6A2.48,2.48,0,0,0,58,43.52V31H52Z"/><path class="cls-3" d="M55.52,0h-6A2.48,2.48,0,0,1,52,2.48V15h6V2.48A2.48,2.48,0,0,0,55.52,0Z"/><path class="cls-4" d="M50,31a8,8,0,0,1,0-16h2V2.48A2.48,2.48,0,0,0,49.52,0h-47A2.48,2.48,0,0,0,0,2.48v41A2.48,2.48,0,0,0,2.48,46h47A2.48,2.48,0,0,0,52,43.52V31Z"/><path class="cls-5" d="M48,35.83a1,1,0,0,1-.71-.29,1,1,0,0,1-.29-.71,1,1,0,0,1,.29-.7,1,1,0,0,1,1.42,0,1,1,0,0,1,.29.7,1,1,0,0,1-.29.71A1,1,0,0,1,48,35.83Z"/><path class="cls-5" d="M47,38.42a1,1,0,0,1,1-1h0a1,1,0,0,1,1,1h0a1,1,0,0,1-1,1h0A1,1,0,0,1,47,38.42Z"/><path class="cls-5" d="M48,43a1,1,0,0,1-1-1,1,1,0,1,1,1,1Z"/><path class="cls-5" d="M43,42a1,1,0,0,1,1-1h0a1,1,0,0,1,1,1h0a1,1,0,0,1-1,1h0A1,1,0,0,1,43,42Zm-4,0a1,1,0,0,1,1-1h0a1,1,0,0,1,1,1h0a1,1,0,0,1-1,1h0A1,1,0,0,1,39,42Zm-4,0a1,1,0,0,1,1-1h0a1,1,0,0,1,1,1h0a1,1,0,0,1-1,1h0A1,1,0,0,1,35,42Zm-4,0a1,1,0,0,1,1-1h0a1,1,0,0,1,1,1h0a1,1,0,0,1-1,1h0A1,1,0,0,1,31,42Zm-4,0a1,1,0,0,1,1-1h0a1,1,0,0,1,1,1h0a1,1,0,0,1-1,1h0A1,1,0,0,1,27,42Zm-4,0a1,1,0,0,1,1-1h0a1,1,0,0,1,1,1h0a1,1,0,0,1-1,1h0A1,1,0,0,1,23,42Zm-4,0a1,1,0,0,1,1-1h0a1,1,0,0,1,1,1h0a1,1,0,0,1-1,1h0A1,1,0,0,1,19,42Zm-4,0a1,1,0,0,1,1-1h0a1,1,0,0,1,1,1h0a1,1,0,0,1-1,1h0A1,1,0,0,1,15,42Zm-4,0a1,1,0,0,1,1-1h0a1,1,0,0,1,1,1h0a1,1,0,0,1-1,1h0A1,1,0,0,1,11,42ZM7,42a1,1,0,0,1,1-1H8a1,1,0,0,1,1,1H9a1,1,0,0,1-1,1H8A1,1,0,0,1,7,42Z"/><path class="cls-5" d="M4,43a1,1,0,1,1,.71-1.71A1,1,0,0,1,4,43Z"/><path class="cls-5" d="M3,38.2a1,1,0,0,1,1-1H4a1,1,0,0,1,1,1H5a1,1,0,0,1-1,1H4A1,1,0,0,1,3,38.2Zm0-3.8a1,1,0,0,1,1-1H4a1,1,0,0,1,1,1H5a1,1,0,0,1-1,1H4A1,1,0,0,1,3,34.4Zm0-3.8a1,1,0,0,1,1-1H4a1,1,0,0,1,1,1H5a1,1,0,0,1-1,1H4A1,1,0,0,1,3,30.6Zm0-3.8a1,1,0,0,1,1-1H4a1,1,0,0,1,1,1H5a1,1,0,0,1-1,1H4A1,1,0,0,1,3,26.8ZM3,23a1,1,0,0,1,1-1H4a1,1,0,0,1,1,1H5a1,1,0,0,1-1,1H4A1,1,0,0,1,3,23Zm0-3.8a1,1,0,0,1,1-1H4a1,1,0,0,1,1,1H5a1,1,0,0,1-1,1H4A1,1,0,0,1,3,19.2Zm0-3.8a1,1,0,0,1,1-1H4a1,1,0,0,1,1,1H5a1,1,0,0,1-1,1H4A1,1,0,0,1,3,15.4Zm0-3.8a1,1,0,0,1,1-1H4a1,1,0,0,1,1,1H5a1,1,0,0,1-1,1H4A1,1,0,0,1,3,11.6ZM3,7.8a1,1,0,0,1,1-1H4a1,1,0,0,1,1,1H5a1,1,0,0,1-1,1H4A1,1,0,0,1,3,7.8Z"/><path class="cls-5" d="M4,5A1,1,0,0,1,3,4a1,1,0,0,1,.29-.71,1,1,0,0,1,1.42,0,1,1,0,0,1,0,1.42A1.05,1.05,0,0,1,4,5Z"/><path class="cls-5" d="M43,4a1,1,0,0,1,1-1h0a1,1,0,0,1,1,1h0a1,1,0,0,1-1,1h0A1,1,0,0,1,43,4ZM39,4a1,1,0,0,1,1-1h0a1,1,0,0,1,1,1h0a1,1,0,0,1-1,1h0A1,1,0,0,1,39,4ZM35,4a1,1,0,0,1,1-1h0a1,1,0,0,1,1,1h0a1,1,0,0,1-1,1h0A1,1,0,0,1,35,4ZM31,4a1,1,0,0,1,1-1h0a1,1,0,0,1,1,1h0a1,1,0,0,1-1,1h0A1,1,0,0,1,31,4ZM27,4a1,1,0,0,1,1-1h0a1,1,0,0,1,1,1h0a1,1,0,0,1-1,1h0A1,1,0,0,1,27,4ZM23,4a1,1,0,0,1,1-1h0a1,1,0,0,1,1,1h0a1,1,0,0,1-1,1h0A1,1,0,0,1,23,4ZM19,4a1,1,0,0,1,1-1h0a1,1,0,0,1,1,1h0a1,1,0,0,1-1,1h0A1,1,0,0,1,19,4ZM15,4a1,1,0,0,1,1-1h0a1,1,0,0,1,1,1h0a1,1,0,0,1-1,1h0A1,1,0,0,1,15,4ZM11,4a1,1,0,0,1,1-1h0a1,1,0,0,1,1,1h0a1,1,0,0,1-1,1h0A1,1,0,0,1,11,4ZM7,4A1,1,0,0,1,8,3H8A1,1,0,0,1,9,4H9A1,1,0,0,1,8,5H8A1,1,0,0,1,7,4Z"/><path class="cls-5" d="M48,5a1,1,0,0,1-1-1,1,1,0,0,1,.29-.71,1,1,0,0,1,1.42,0A1,1,0,0,1,49,4a1,1,0,0,1-1,1Z"/><path class="cls-5" d="M47,7.58a1,1,0,0,1,1-1h0a1,1,0,0,1,1,1h0a1,1,0,0,1-1,1h0A1,1,0,0,1,47,7.58Z"/><path class="cls-5" d="M48,12.17a1,1,0,0,1-1-1,1,1,0,0,1,.3-.71,1,1,0,0,1,1.7.71,1,1,0,0,1-1,1Z"/><circle class="cls-6" cx="49.26" cy="21.83" r="1.76"/></g></g></svg>