<svg xmlns="http://www.w3.org/2000/svg" viewBox="0 0 51 57"><defs><style>.cls-1{fill:#6e8c61;}.cls-2{fill:#e9e8d3;}.cls-3{fill:#fcc62d;}.cls-4{fill:#d19d18;}.cls-5{fill:#e4af18;}.cls-6{fill:#607b53;}.cls-7{fill:#546949;}</style></defs><title>5</title><g id="Слой_2" data-name="Слой 2"><g id="Capa_1" data-name="Capa 1"><g id="_Группа_" data-name="&lt;Группа&gt;"><path id="_Контур_" data-name="&lt;Контур&gt;" class="cls-1" d="M19,51V35c0-3.31,4.25-6,9.5-6a14.41,14.41,0,0,1,3.5.43V0H0V56H23.25C20.69,54.92,19,53.09,19,51"/><path id="_Контур_2" data-name="&lt;Контур&gt;" class="cls-2" d="M5,21.09a13,13,0,0,1,22,0V11l-.5,0A5.5,5.5,0,0,1,21,5.5c0-.17,0-.34,0-.5H11c0,.16,0,.33,0,.5A5.5,5.5,0,0,1,5.5,11L5,11Z"/><path id="_Контур_3" data-name="&lt;Контур&gt;" class="cls-2" d="M19,43V40.64A12.95,12.95,0,0,1,5,34.91V45l.5,0A5.5,5.5,0,0,1,11,50.5c0,.17,0,.33,0,.5h8V43Z"/><path id="_Контур_4" data-name="&lt;Контур&gt;" class="cls-2" d="M24,5.5A2.5,2.5,0,1,1,26.5,8,2.5,2.5,0,0,1,24,5.5"/><path id="_Контур_5" data-name="&lt;Контур&gt;" class="cls-2" d="M3,5.5A2.5,2.5,0,1,1,5.5,8,2.5,2.5,0,0,1,3,5.5"/><path id="_Контур_6" data-name="&lt;Контур&gt;" class="cls-2" d="M3,50.5A2.5,2.5,0,1,1,5.5,53,2.5,2.5,0,0,1,3,50.5"/><path id="_Контур_7" data-name="&lt;Контур&gt;" class="cls-3" d="M38,35c0,3.31-4.25,6-9.5,6S19,38.31,19,35s4.25-6,9.5-6S38,31.69,38,35"/><path id="_Контур_8" data-name="&lt;Контур&gt;" class="cls-4" d="M28.5,53c-5.25,0-9.5-2.69-9.5-6v4c0,3.31,4.25,6,9.5,6S38,54.31,38,51V47c0,3.31-4.25,6-9.5,6"/><path id="_Контур_9" data-name="&lt;Контур&gt;" class="cls-5" d="M28.5,49c-5.25,0-9.5-2.69-9.5-6v4c0,3.31,4.25,6,9.5,6S38,50.31,38,47V43c0,3.31-4.25,6-9.5,6"/><path id="_Контур_10" data-name="&lt;Контур&gt;" class="cls-4" d="M28.5,45c-5.25,0-9.5-2.69-9.5-6v4c0,3.31,4.25,6,9.5,6S38,46.31,38,43V39c0,3.31-4.25,6-9.5,6"/><path id="_Контур_11" data-name="&lt;Контур&gt;" class="cls-5" d="M28.5,41c-5.25,0-9.5-2.69-9.5-6v4c0,3.31,4.25,6,9.5,6S38,42.31,38,39V35c0,3.31-4.25,6-9.5,6"/><path id="_Контур_12" data-name="&lt;Контур&gt;" class="cls-3" d="M51,23c0,3.31-4.25,6-9.5,6S32,26.31,32,23s4.25-6,9.5-6S51,19.69,51,23"/><path id="_Контур_13" data-name="&lt;Контур&gt;" class="cls-2" d="M21.92,30.68A8.75,8.75,0,0,0,22,23c-.85-.25-3.35.5-3.64,1.31A5,5,0,0,0,15,23c-1.62,0-2.31,1.7-2.81,1.87a2.41,2.41,0,0,1-.74.13,2.64,2.64,0,0,1-1.95-.92L5.78,20a13,13,0,0,0,0,16L9.47,32A2.68,2.68,0,0,1,11.86,31a2.65,2.65,0,0,1,.38.1c.32.11,1.89,1.78,2.24,1.82,1,2.47,3.33,1.48,4.9.39a6.28,6.28,0,0,1,2.55-2.67"/><path id="_Контур_14" data-name="&lt;Контур&gt;" class="cls-5" d="M41.5,53a14.32,14.32,0,0,1-3.81-.51A6.22,6.22,0,0,1,35,55.37,12.88,12.88,0,0,0,41.5,57c5.25,0,9.5-2.69,9.5-6V47c0,3.31-4.25,6-9.5,6"/><path id="_Контур_15" data-name="&lt;Контур&gt;" class="cls-4" d="M41.5,49a14.41,14.41,0,0,1-3.5-.43V51a4,4,0,0,1-.31,1.49A14.32,14.32,0,0,0,41.5,53c5.25,0,9.5-2.69,9.5-6V43c0,3.31-4.25,6-9.5,6"/><path id="_Контур_16" data-name="&lt;Контур&gt;" class="cls-5" d="M41.5,45a14.41,14.41,0,0,1-3.5-.43v4a14.41,14.41,0,0,0,3.5.43c5.25,0,9.5-2.69,9.5-6V39c0,3.31-4.25,6-9.5,6"/><path id="_Контур_17" data-name="&lt;Контур&gt;" class="cls-4" d="M41.5,41a14.41,14.41,0,0,1-3.5-.43v4a14.41,14.41,0,0,0,3.5.43c5.25,0,9.5-2.69,9.5-6V35c0,3.31-4.25,6-9.5,6"/><path id="_Контур_18" data-name="&lt;Контур&gt;" class="cls-5" d="M41.5,37a14.41,14.41,0,0,1-3.5-.43v4a14.41,14.41,0,0,0,3.5.43c5.25,0,9.5-2.69,9.5-6V31c0,3.31-4.25,6-9.5,6"/><path id="_Контур_19" data-name="&lt;Контур&gt;" class="cls-4" d="M41.5,33A14,14,0,0,1,37,32.27,4.32,4.32,0,0,1,38,35v1.57a14.41,14.41,0,0,0,3.5.43c5.25,0,9.5-2.69,9.5-6V27c0,3.31-4.25,6-9.5,6"/><path id="_Контур_20" data-name="&lt;Контур&gt;" class="cls-5" d="M41.5,29c-5.25,0-9.5-2.69-9.5-6v4a4.32,4.32,0,0,0,1,2.73A8.61,8.61,0,0,1,37,32.27,14,14,0,0,0,41.5,33c5.25,0,9.5-2.69,9.5-6V23c0,3.31-4.25,6-9.5,6"/><path id="_Контур_21" data-name="&lt;Контур&gt;" class="cls-6" d="M41,17V0H38V17.43A14.3,14.3,0,0,1,41,17"/><path id="_Контур_22" data-name="&lt;Контур&gt;" class="cls-7" d="M38,17.43V0H35V18.63a11.2,11.2,0,0,1,3-1.21"/><path id="_Контур_23" data-name="&lt;Контур&gt;" class="cls-6" d="M35,18.63V0H32V23c0-1.73,1.16-3.27,3-4.37"/></g></g></g></svg>