<svg xmlns="http://www.w3.org/2000/svg" viewBox="0 0 52 58"><defs><style>.cls-1{fill:#3c494e;}.cls-2{fill:#556080;}.cls-3{fill:#a4e869;}.cls-4{fill:#ed7161;}.cls-5{fill:#b1d194;}.cls-6{fill:#8697cb;}.cls-7{fill:#fdfdfd;}.cls-8{fill:#f65246;}.cls-9{fill:#f5d758;}.cls-10{fill:#1fd483;}.cls-11{fill:#70845a;}</style></defs><title>7</title><g id="Слой_2" data-name="Слой 2"><g id="Capa_1" data-name="Capa 1"><path class="cls-1" d="M33.27,58H4.73A4.73,4.73,0,0,1,0,53.27V4.73A4.73,4.73,0,0,1,4.73,0H33.27A4.73,4.73,0,0,1,38,4.73V53.27A4.73,4.73,0,0,1,33.27,58Z"/><path class="cls-2" d="M49.8,40H38V8H49.8A2.2,2.2,0,0,1,52,10.2V37.8A2.2,2.2,0,0,1,49.8,40Z"/><rect class="cls-1" x="42" y="8" width="4" height="32"/><circle class="cls-3" cx="49" cy="13" r="1"/><circle class="cls-4" cx="49" cy="18" r="1"/><rect class="cls-5" x="5" y="9" width="28" height="11"/><path class="cls-6" d="M10,6H4A1,1,0,0,1,4,4h6a1,1,0,0,1,0,2Z"/><rect class="cls-7" x="6" y="24" width="6" height="5"/><rect class="cls-7" x="16" y="24" width="6" height="5"/><rect class="cls-8" x="26" y="24" width="6" height="5"/><rect class="cls-7" x="6" y="32" width="6" height="5"/><rect class="cls-7" x="16" y="32" width="6" height="5"/><rect class="cls-9" x="26" y="32" width="6" height="5"/><rect class="cls-7" x="6" y="40" width="6" height="5"/><rect class="cls-7" x="16" y="40" width="6" height="5"/><rect class="cls-7" x="6" y="48" width="6" height="5"/><rect class="cls-7" x="16" y="48" width="6" height="5"/><rect class="cls-10" x="26" y="40" width="6" height="14"/><path class="cls-11" d="M16.38,11.08a1,1,0,0,0-1.09.22l-1,1A1,1,0,0,0,15,14v3a1,1,0,0,0,2,0V12a1,1,0,0,0-.08-.38A1,1,0,0,0,16.38,11.08Z"/><path class="cls-11" d="M25.38,11.08a1,1,0,0,0-1.09.22l-1,1A1,1,0,0,0,24,14v3a1,1,0,0,0,2,0V12a1,1,0,0,0-.08-.38A1,1,0,0,0,25.38,11.08Z"/><path class="cls-11" d="M20.29,15.29l-1,1a1,1,0,1,0,1.41,1.41l1-1a1,1,0,0,0-1.41-1.41Z"/><path class="cls-11" d="M29.92,11.62a1,1,0,0,0-1.63-.32l-1,1A1,1,0,0,0,28,14v3a1,1,0,0,0,2,0V12A1,1,0,0,0,29.92,11.62Z"/></g></g></svg>