<svg xmlns="http://www.w3.org/2000/svg" viewBox="0 0 58 58"><defs><style>.cls-1{fill:#ce9965;}.cls-2{fill:#986c48;}.cls-3{fill:#ffd16c;}.cls-4{fill:#604530;}.cls-5{fill:#cbb292;}</style></defs><title>8</title><g id="Слой_2" data-name="Слой 2"><g id="Capa_1" data-name="Capa 1"><path class="cls-1" d="M50.87,11H7.13A7.13,7.13,0,0,0,0,18.13v9.51l6,2.06a61.62,61.62,0,0,0,16,3.21V25H36v7.9a68.38,68.38,0,0,0,16-3.2l6-2.06V18.13A7.13,7.13,0,0,0,50.87,11Z"/><path class="cls-2" d="M36,32.9V25H22v7.92A61.62,61.62,0,0,1,6,29.71L0,27.64,1,28V55.77A2.23,2.23,0,0,0,3.23,58H54.77A2.23,2.23,0,0,0,57,55.77V28l1-.34-6,2.06A68.33,68.33,0,0,1,36,32.9Z"/><rect class="cls-3" x="16" y="8" width="8" height="3"/><rect class="cls-3" x="34" y="8" width="8" height="3"/><path class="cls-4" d="M36,5.44V8h4V5.89A5.89,5.89,0,0,0,34.11,0H23.89A5.89,5.89,0,0,0,18,5.89V8h4V5.44A1.56,1.56,0,0,1,24.16,4a12.68,12.68,0,0,0,9.68,0A1.56,1.56,0,0,1,36,5.44Z"/><rect class="cls-3" x="42" y="49" width="10" height="4"/><polygon class="cls-4" points="30 43 28 43 25 40 25 37 33 37 33 40 30 43"/><rect class="cls-4" x="25" y="11" width="8" height="14"/><rect class="cls-3" x="22" y="25" width="14" height="12"/><rect class="cls-4" x="25" y="25" width="8" height="9"/><path class="cls-5" d="M29,35a1,1,0,0,1-1-1V30a1,1,0,0,1,2,0v4A1,1,0,0,1,29,35Z"/></g></g></svg>