<svg xmlns="http://www.w3.org/2000/svg" viewBox="0 0 503.32 503.32"><defs><style>.cls-1{fill:#e6eef3;}.cls-2{fill:#cad3db;}.cls-3{fill:#9aabb4;}.cls-4{fill:#788992;}</style></defs><title>9</title><g id="Слой_2" data-name="Слой 2"><g id="Layer_1" data-name="Layer 1"><polygon class="cls-1" points="34.71 468.61 468.61 468.61 468.61 0 34.71 0 34.71 468.61"/><polygon class="cls-2" points="0 503.32 503.32 503.32 503.32 468.61 0 468.61 0 503.32"/><polygon class="cls-3" points="86.78 95.46 156.2 95.46 156.2 43.39 86.78 43.39 86.78 95.46"/><polygon class="cls-3" points="86.78 190.91 156.2 190.91 156.2 138.85 86.78 138.85 86.78 190.91"/><polygon class="cls-3" points="216.95 190.91 286.37 190.91 286.37 138.85 216.95 138.85 216.95 190.91"/><polygon class="cls-3" points="347.12 190.91 416.54 190.91 416.54 138.85 347.12 138.85 347.12 190.91"/><polygon class="cls-3" points="216.95 286.37 286.37 286.37 286.37 234.31 216.95 234.31 216.95 286.37"/><polygon class="cls-3" points="347.12 286.37 416.54 286.37 416.54 234.31 347.12 234.31 347.12 286.37"/><polygon class="cls-3" points="86.78 286.37 156.2 286.37 156.2 234.31 86.78 234.31 86.78 286.37"/><polygon class="cls-3" points="216.95 95.46 286.37 95.46 286.37 43.39 216.95 43.39 216.95 95.46"/><polygon class="cls-3" points="347.12 95.46 416.54 95.46 416.54 43.39 347.12 43.39 347.12 95.46"/><polygon class="cls-3" points="251.66 468.61 321.08 468.61 321.08 364.48 251.66 364.48 251.66 468.61"/><polygon class="cls-4" points="182.24 468.61 251.66 468.61 251.66 364.48 182.24 364.48 182.24 468.61"/><path class="cls-3" d="M303.73,338.44H199.6a8.68,8.68,0,0,1,0-17.36H303.73a8.68,8.68,0,1,1,0,17.36"/></g></g></svg>