<svg xmlns="http://www.w3.org/2000/svg" viewBox="0 0 134 40"><defs><style>.cls-1{fill:#333;}.cls-2{fill:#338539;}.cls-3{fill:#556180;}</style></defs><title>logo-text</title><g id="Слой_2" data-name="Слой 2"><g id="Logo"><path id="ЗАЛОГ_ИНВЕСТ" data-name="ЗАЛОГ ИНВЕСТ" class="cls-1" d="M78.07,16.64c1.87,0,3.29-.9,3.29-2.61a2,2,0,0,0-1.47-1.94v0A1.87,1.87,0,0,0,81,10.24C81,8.86,79.92,8,78,8a4.08,4.08,0,0,0-2.74,1l1,1.25a2.78,2.78,0,0,1,1.72-.65,1,1,0,0,1,1.18.92c0,.6-.37.95-1.38.95h-.86v1.39H78c1,0,1.52.31,1.52,1A1.24,1.24,0,0,1,78.18,15L78,15A2.94,2.94,0,0,1,76,14.21L75,15.5A4.41,4.41,0,0,0,78.07,16.64Zm9.45-4.37c.23-.83.45-1.8.66-2.69h.05c.22.87.45,1.85.68,2.69l.19.77H87.32Zm-3,4.22h1.93l.51-2h2.56l.51,2h2L89.38,8.15H87.1Zm11,.15c1.34,0,2-.75,2.57-3.56.21-1.1.41-2.17.62-3.35h1.53v6.75h1.9V8.15H97.17c-.3,1.61-.57,3.18-.91,4.73-.39,1.79-.68,2-1.11,2a1.53,1.53,0,0,1-.36-.05l-.33,1.69a2.58,2.58,0,0,0,1,.13Zm14.41,0c2.26,0,3.81-1.64,3.81-4.36S112.12,8,109.85,8,106,9.56,106,12.29s1.54,4.36,3.81,4.36Zm0-1.62C108.71,15,108,14,108,12.28s.72-2.66,1.87-2.66,1.87,1,1.87,2.66S111,15,109.85,15Zm8.28,1.47H120V9.74h3.4V8.15h-5.29v8.34ZM75.52,31.84h2l2.2-4.16.82-1.82h.05c-.08.92-.23,2-.23,3v3h1.87V23.5h-2L78,27.66l-.82,1.83h-.05c.09-.88.24-2.06.24-3V23.5H75.52v8.34Zm11.69,0H89.1V28.37H92v3.48h1.9V23.5H92v3.21H89.1V23.5H87.21v8.34Zm10.86,0h3.11c1.81,0,3.26-.76,3.26-2.46a1.89,1.89,0,0,0-1.5-2v-.05a1.93,1.93,0,0,0,1.09-1.8c0-1.6-1.35-2.07-3.09-2.07H98.07v8.34Zm1.89-5V25h.9c.89,0,1.31.24,1.31.9s-.4,1-1.33,1Zm0,3.54V28.24H101c1,0,1.56.29,1.56,1s-.53,1.13-1.56,1.13Zm8.14,1.46h5.38V30.26H110V28.34h2.86V26.77H110V25.09h3.36V23.5H108.1v8.34Zm13.53.15a3.46,3.46,0,0,0,2.71-1.23l-1-1.18a2.24,2.24,0,0,1-1.63.78c-1.24,0-2-1-2-2.71s.91-2.69,2.06-2.69a2.15,2.15,0,0,1,1.48.67l1-1.2a3.56,3.56,0,0,0-2.52-1.09c-2.12,0-4,1.61-4,4.37S119.5,32,121.63,32Zm8.16-.15h1.9V25.09H134V23.5h-6.51v1.59h2.3v6.75Z"/><rect id="Прямоугольник_13" data-name="Прямоугольник 13" class="cls-1" x="63.44" width="0.78" height="40"/><g id="Слой_2-2" data-name="Слой 2"><g id="Слой_1-2" data-name="Слой 1-2"><polyline class="cls-2" points="0 19.96 6.33 19.96 22 6.96 22 1.64"/><polyline class="cls-2" points="46.33 19.96 40 19.96 24.33 6.96 24.33 1.64"/><polyline class="cls-3" points="22.75 8.55 11.75 18.05 34.75 18.05"/><path class="cls-1" d="M24.88,22.47,18.1,34.59H25v3.78H11.75v-.64L18.5,25.64H12.36v-3.8H24.88Z"/><path class="cls-1" d="M34.75,34.64v3.71H26.37V34.64h2.1V25.51H26.53V21.84h8.05v3.68H32.65v9.12Z"/></g></g></g></g></svg>